<svg width="1200" height="400" viewBox="0 0 1200 400" fill="none" xmlns="http://www.w3.org/2000/svg">
  <rect width="1200" height="400" fill="#F3F4F6"/>
  <g transform="translate(550, 150)">
    <path d="M50 0C22.3858 0 0 22.3858 0 50C0 77.6142 22.3858 100 50 100C77.6142 100 100 77.6142 100 50C100 22.3858 77.6142 0 50 0ZM50 87.5C29.2893 87.5 12.5 70.7107 12.5 50C12.5 29.2893 29.2893 12.5 50 12.5C70.7107 12.5 87.5 29.2893 87.5 50C87.5 70.7107 70.7107 87.5 50 87.5Z" fill="#9CA3AF"/>
    <path d="M25 37.5C25 31.9772 29.4772 27.5 35 27.5H65C70.5228 27.5 75 31.9772 75 37.5V62.5C75 68.0228 70.5228 72.5 65 72.5H35C29.4772 72.5 25 68.0228 25 62.5V37.5Z" fill="#9CA3AF"/>
  </g>
  <text x="600" y="300" text-anchor="middle" font-family="system-ui" font-size="24" fill="#6B7280">Banner image not available</text>
  <text x="600" y="330" text-anchor="middle" font-family="system-ui" font-size="18" fill="#9CA3AF">Please check back later</text>
  <rect x="0" y="0" width="1200" height="400" fill="url(#pattern)" fill-opacity="0.1"/>
  <defs>
    <pattern id="pattern" patternUnits="userSpaceOnUse" width="40" height="40" patternTransform="rotate(45)">
      <rect width="40" height="40" fill="none"/>
      <path d="M0 0L40 40M-10 30L10 50M30 -10L50 10" stroke="#E5E7EB" stroke-width="1"/>
    </pattern>
  </defs>
</svg>
