<?xml version="1.0" encoding="UTF-8"?>
<svg width="512" height="512" viewBox="0 0 512 512" fill="none" xmlns="http://www.w3.org/2000/svg">
  <!-- Background Circle -->
  <circle cx="256" cy="256" r="248" fill="#DC2626"/>
  
  <!-- Stylized Ganesha Symbol -->
  <path d="M256 96
    C192 96 140 148 140 212
    C140 276 192 328 256 328
    C320 328 372 276 372 212
    C372 148 320 96 256 96Z
    M256 308
    C203 308 160 265 160 212
    C160 159 203 116 256 116
    C309 116 352 159 352 212
    C352 265 309 308 256 308Z" 
    fill="white"/>
  
  <!-- Om Symbol -->
  <path d="M256 352
    C203 352 160 395 160 448
    M256 352
    C309 352 352 395 352 448
    M256 352
    L256 448" 
    stroke="white" 
    stroke-width="20" 
    stroke-linecap="round"/>
  
  <!-- Decorative Elements -->
  <circle cx="256" cy="212" r="40" fill="white"/>
  <path d="M216 172L296 252M296 172L216 252" 
    stroke="white" 
    stroke-width="12" 
    stroke-linecap="round"/>
</svg>
